<svg viewBox="0 0 24 24" aria-hidden="true" class="r-4qtqp9 r-yyyyoo r-dnmrzs r-bnwqim r-1plcrui r-lrvibr r-1d4mawv r-z80fyv r-19wmn03" style="color: rgb(15, 20, 25);"><g><path clip-rule="evenodd" d="M18 2H6C3.79 2 2 3.79 2 6v12c0 2.21 1.79 4 4 4h12c2.21 0 4-1.79 4-4V6c0-2.21-1.79-4-4-4zm-6.07 8.25L6.644 17.8h2.515l4.566-6.52v.532h.611v.782h.612v.781h3.671v-.781h.612v-.782h.612v-.781h.612v-.782h.612v-.781h-6.073l2.274-3.248h-2.515l-2.274 3.248H2.934v.781h.612v.782h.612v.781h.612v.782h.612v.781h3.67v-.781h.613v-.782h.611v-.781h.612v-.782h1.043z" fill-rule="evenodd" xmlns="http://www.w3.org/2000/svg"></path></g></svg>